<?xml version="1.0" encoding="UTF-8"?>
<svg viewBox="0 0 462.93692 462.93692" xmlns="http://www.w3.org/2000/svg" xmlns:xlink="http://www.w3.org/1999/xlink">
 <g transform="matrix(2.0936 0 0 2.0936 224.56 230.21)" fill="none" stroke="#00f">
  <path transform="rotate(2.2968)" d="m0 100c-3.1564 0-5.7151-44.772-5.7151-100s2.5587-100 5.7151-100"/>
  <path transform="rotate(11.172)" d="m0 100c-14.729 0-26.67-44.772-26.67-100s11.941-100 26.67-100"/>
  <path transform="rotate(21.151)" d="m0 100c-25.299 0-45.807-44.772-45.807-100s20.509-100 45.807-100"/>
  <path transform="rotate(33.418)" d="m0 100c-34.144 0-61.823-44.772-61.823-100s27.679-100 61.823-100"/>
  <path transform="rotate(49.624)" d="m0 100c-40.662 0-73.626-44.772-73.626-100s32.963-100 73.626-100"/>
  <path transform="rotate(71.279)" d="m0 100c-44.41 0-80.411-44.772-80.411-100s36.001-100 80.411-100"/>
  <path transform="matrix(.12102,-.99265,.99265,.12102,0,0)" d="m0-100c45.131 0 81.717 44.772 81.717 100s-36.586 100-81.717 100"/>
  <path transform="matrix(.5147,-.85737,.85737,.5147,0,0)" d="m0-100c42.776 0 77.453 44.772 77.453 100s-34.677 100-77.453 100"/>
  <path transform="matrix(.7618,-.64781,.64781,.7618,0,0)" d="m0-100c37.507 0 67.912 44.772 67.912 100s-30.405 100-67.912 100"/>
  <path transform="matrix(.89493,-.44621,.44621,.89493,0,0)" d="m0-100c29.681 0 53.742 44.772 53.742 100s-24.061 100-53.742 100"/>
  <path transform="matrix(.96303,-.26941,.26941,.96303,0,0)" d="m0-100c19.833 0 35.91 44.772 35.91 100s-16.078 100-35.91 100"/>
  <path transform="matrix(.99384,-.11081,.11081,.99384,0,0)" d="m0-100c8.6328 0 15.631 44.772 15.631 100s-6.9983 100-15.631 100"/>
  <path d="m15.682 98.764c-10.262 1.6294-21.102 1.6294-31.364 1e-6"/>
  <path d="m50.483 86.322c-27.345 15.992-72.114 16.242-99.995 0.55695-0.3268-0.18384-0.65047-0.3695-0.97099-0.55695"/>
  <path d="m69.65 71.756c-22.73 22.064-72.341 29.381-110.81 16.343-11.749-3.9822-21.551-9.6044-28.493-16.343"/>
  <path d="m83.237 55.422c-17.556 26.368-69.055 39.58-115.03 29.51-23.689-5.1893-42.401-15.922-51.448-29.51"/>
  <path d="m92.612 37.724c-11.95 29.338-63.101 47.564-114.25 40.71-35.232-4.7216-62.742-20.501-70.974-40.71"/>
  <path d="m98.16 19.097c-6.0495 31.095-54.901 53.49-109.11 50.02-45.875-2.9363-82.087-23.707-87.206-50.02"/>
  <path d="m100 0c0 31.678-44.772 57.359-100 57.359s-100-25.68-100-57.359"/>
  <path d="m98.16-19.097c6.0495 31.095-32.994 59.116-87.206 62.586s-103.06-18.925-109.11-50.02c-0.81236-4.1756-0.81236-8.3901-1e-6 -12.566"/>
  <path d="m92.612-37.724c11.95 29.338-19.826 58.677-70.974 65.532s-102.3-11.372-114.25-40.71c-3.3255-8.1641-3.3255-16.658 1e-6 -24.822"/>
  <path d="m83.237-55.422c17.556 26.368-5.4777 55.907-51.448 65.977s-97.469-3.142-115.03-29.51c-7.8182-11.742-7.8182-24.725-2e-6 -36.467"/>
  <path d="m69.65-71.756c22.73 22.064 9.9736 50.52-28.493 63.558s-88.077 5.7208-110.81-16.343c-15.002-14.562-15.002-32.653 1e-6 -47.215"/>
  <path d="m50.483-86.322c27.345 15.992 26.91 41.672-0.97099 57.356s-72.65 15.435-99.995-0.55695c-26.97-15.773-26.97-41.026-3e-6 -56.799"/>
  <path d="m15.682-98.764c31.286 4.9678 49.627 23.543 40.966 41.488s-41.044 28.466-72.33 23.498-49.627-23.543-40.966-41.488c5.5101-11.417 21.062-20.337 40.966-23.498"/>
  <path d="m45.399-72.987c0 14.382-20.326 26.041-45.399 26.041s-45.399-11.659-45.399-26.041 20.326-26.041 45.399-26.041 45.399 11.659 45.399 26.041z"/>
  <path d="m30.902-77.906c0 9.7895-13.835 17.725-30.902 17.725s-30.902-7.936-30.902-17.725 13.835-17.725 30.902-17.725 30.902 7.936 30.902 17.725z"/>
  <path d="m15.643-80.907c0 4.956-7.0038 8.9737-15.643 8.9737s-15.643-4.0177-15.643-8.9737 7.0038-8.9737 15.643-8.9737 15.643 4.0177 15.643 8.9737z"/>
  <path d="m100 0c0 55.228-44.772 100-100 100s-100-44.772-100-100 44.772-100 100-100 100 44.772 100 100z"/>
 </g>
</svg>
